<svg width="18" height="13" viewBox="0 0 18 13" fill="none" xmlns="http://www.w3.org/2000/svg">
<path d="M17.418 6.13131C17.418 6.13131 13.9387 12.1361 8.776 12.1361C3.61308 12.1362 0.134766 6.13131 0.134766 6.13131C0.134766 6.13131 3.61308 0.104248 8.77575 0.104248C13.9387 0.104248 17.4177 6.13131 17.4177 6.13131H17.418ZM13.0081 6.13131C13.0081 3.80485 11.1023 1.89945 8.776 1.89945C6.44954 1.89945 4.54389 3.80473 4.54389 6.13131C4.54389 8.45814 6.44966 10.3634 8.776 10.3634C11.1025 10.3635 13.0081 8.45824 13.0081 6.13131ZM8.77575 4.22603C7.73462 4.22603 6.89228 5.11218 6.89228 6.13131C6.89228 7.17283 7.73462 8.01478 8.77575 8.01478C9.79547 8.01478 10.6814 7.17273 10.6814 6.13131C10.6814 5.11218 9.79547 4.22603 8.77575 4.22603Z" fill="#75818D"/>
</svg>
