<svg width="19" height="20" viewBox="0 0 19 20" fill="none" xmlns="http://www.w3.org/2000/svg">
<path d="M17.8982 9.28907C17.8894 9.28907 17.8808 9.28907 17.8721 9.28886C17.3764 9.27487 16.9858 8.86149 16.9998 8.36582C17.0459 6.73881 16.4626 5.18022 15.3575 3.97786C14.2827 2.80869 12.797 2.10217 11.1744 1.98902C10.68 1.95436 10.3067 1.52532 10.3411 1.0307C10.3758 0.535893 10.8069 0.161535 11.2994 0.197451C13.382 0.342974 15.2928 1.25369 16.6795 2.76252C18.103 4.31165 18.8543 6.31973 18.7946 8.41675C18.7815 8.90342 18.3821 9.28902 17.8979 9.28902L17.8982 9.28907ZM14.707 9.27007C14.6786 9.27007 14.6504 9.26882 14.6216 9.26589C14.128 9.21954 13.7652 8.78152 13.8119 8.28775C13.8886 7.47454 13.6449 6.79206 13.0455 6.13979C12.3857 5.4214 11.5974 5.03053 10.8458 5.04935C10.8395 5.04956 10.8335 5.04956 10.8272 5.04956C10.3397 5.04956 9.93972 4.65934 9.92988 4.16997C9.91965 3.67432 10.3132 3.26429 10.8093 3.25403C12.0926 3.22689 13.3545 3.82149 14.3677 4.92449C15.3093 5.94897 15.7235 7.13733 15.5991 8.45578C15.5557 8.92136 15.1648 9.27 14.707 9.27L14.707 9.27007Z" fill="#056BC9"/>
<path d="M12.8074 19.3822C12.6368 19.3822 12.476 19.3586 12.3295 19.3124C9.77842 18.5103 7.04254 16.7778 4.82542 14.5593C2.60755 12.3423 0.874459 9.60599 0.0712997 7.05258C-0.118691 6.45193 0.100947 5.58779 0.560892 5.12782L2.51109 3.17719C2.88878 2.79888 3.39132 2.59033 3.92639 2.59033C4.45941 2.59033 4.9605 2.79744 5.33714 3.17409L6.89044 4.72781C7.26812 5.10487 7.47521 5.60719 7.47377 6.14231C7.47252 6.67533 7.26415 7.17679 6.88691 7.55408L6.10711 8.33388C6.02777 8.41343 6.02631 8.54183 6.10439 8.62012L10.7644 13.2803C10.8122 13.3281 10.8673 13.3381 10.9047 13.3381C10.9435 13.3381 10.9999 13.3277 11.0498 13.2776L11.8304 12.4976C12.2093 12.1186 12.7121 11.9103 13.2468 11.9103C13.7796 11.9103 14.2802 12.1176 14.6569 12.4945L16.2098 14.0474C16.9883 14.8259 16.9871 16.0934 16.2071 16.8732L14.2579 18.8226C13.8721 19.2093 13.2513 19.3822 12.8074 19.3822Z" fill="#056BC9"/>
</svg>
